<?xml version="1.0" encoding="UTF-8" ?>
<!DOCTYPE svg PUBLIC "-//W3C//DTD SVG 1.1//EN" "http://www.w3.org/Graphics/SVG/1.1/DTD/svg11.dtd">
<svg width="172pt" height="82pt" viewBox="0 0 172 82" version="1.1" xmlns="http://www.w3.org/2000/svg">
<g id="#ffffffff">
<path fill="#ffffff" opacity="1.00" d=" M 22.07 39.08 C 63.28 38.88 104.49 39.10 145.70 38.95 C 146.19 43.90 146.18 48.87 145.80 53.82 C 112.21 54.18 78.60 53.92 45.00 54.00 C 37.31 53.91 29.59 54.33 21.91 53.56 C 22.02 48.73 21.97 43.91 22.07 39.08 Z" />
</g>
<g id="#707070ff">
<path fill="#707070" opacity="1.00" d=" M 11.90 27.85 C 13.97 27.95 16.04 28.03 18.10 28.11 C 16.56 30.52 14.52 32.55 12.09 34.08 C 12.04 32.00 11.98 29.92 11.90 27.85 Z" />
</g>
<g id="#424242ff">
<path fill="#424242" opacity="1.00" d=" M 18.10 28.11 C 55.06 27.86 92.03 28.08 129.00 27.99 C 138.35 28.10 147.70 27.79 157.05 28.10 C 157.00 29.67 156.97 31.25 156.96 32.83 C 154.96 32.83 152.95 32.83 150.95 32.94 C 149.53 33.13 148.13 33.39 146.73 33.66 C 146.39 35.43 146.05 37.19 145.70 38.95 C 104.49 39.10 63.28 38.88 22.07 39.08 C 21.97 43.91 22.02 48.73 21.91 53.56 C 18.96 54.05 16.61 55.76 16.79 59.02 C 16.72 61.00 16.71 62.98 16.68 64.96 C 15.13 64.98 13.58 65.00 12.03 65.03 C 12.01 54.72 11.89 44.39 12.09 34.08 C 14.52 32.55 16.56 30.52 18.10 28.11 M 16.92 32.97 C 16.95 35.03 17.00 37.09 17.08 39.14 C 18.67 38.85 21.17 39.73 21.88 37.70 C 22.18 36.19 22.08 34.63 22.11 33.09 C 20.38 33.06 18.65 33.02 16.92 32.97 Z" />
</g>
<g id="#101010ff">
<path fill="#101010" opacity="1.00" d=" M 16.92 32.97 C 18.65 33.02 20.38 33.06 22.11 33.09 C 22.08 34.63 22.18 36.19 21.88 37.70 C 21.17 39.73 18.67 38.85 17.08 39.14 C 17.00 37.09 16.95 35.03 16.92 32.97 Z" />
</g>
<g id="#242424ff">
<path fill="#242424" opacity="1.00" d=" M 146.73 33.66 C 148.13 33.39 149.53 33.13 150.95 32.94 C 150.97 34.97 150.98 37.00 151.00 39.03 C 149.23 39.00 147.47 38.98 145.70 38.95 C 146.05 37.19 146.39 35.43 146.73 33.66 Z" />
</g>
<g id="#000000ff">
<path fill="#000000" opacity="1.00" d=" M 150.95 32.94 C 152.95 32.83 154.96 32.83 156.96 32.83 C 157.04 43.55 156.99 54.27 156.99 64.99 C 110.22 64.98 63.45 65.05 16.68 64.96 C 16.71 62.98 16.72 61.00 16.79 59.02 C 18.54 59.02 20.28 59.02 22.02 59.02 C 63.11 58.95 104.21 59.06 145.30 58.96 C 147.08 58.88 148.86 58.77 150.65 58.67 C 150.77 56.87 150.90 55.07 150.99 53.27 C 151.18 48.52 150.98 43.77 151.00 39.03 C 150.98 37.00 150.97 34.97 150.95 32.94 Z" />
</g>
<g id="#7f7f7fff">
<path fill="#7f7f7f" opacity="1.00" d=" M 145.70 38.95 C 147.47 38.98 149.23 39.00 151.00 39.03 C 150.98 43.77 151.18 48.52 150.99 53.27 C 148.22 54.18 146.07 56.09 145.30 58.96 C 104.21 59.06 63.11 58.95 22.02 59.02 C 21.99 57.20 21.95 55.38 21.91 53.56 C 29.59 54.33 37.31 53.91 45.00 54.00 C 78.60 53.92 112.21 54.18 145.80 53.82 C 146.18 48.87 146.19 43.90 145.70 38.95 Z" />
</g>
<g id="#282828ff">
<path fill="#282828" opacity="1.00" d=" M 16.79 59.02 C 16.61 55.76 18.96 54.05 21.91 53.56 C 21.95 55.38 21.99 57.20 22.02 59.02 C 20.28 59.02 18.54 59.02 16.79 59.02 Z" />
</g>
<g id="#404040ff">
<path fill="#404040" opacity="1.00" d=" M 145.30 58.96 C 146.07 56.09 148.22 54.18 150.99 53.27 C 150.90 55.07 150.77 56.87 150.65 58.67 C 148.86 58.77 147.08 58.88 145.30 58.96 Z" />
</g>
</svg>
