<?xml version="1.0" encoding="UTF-8" ?>
<!DOCTYPE svg PUBLIC "-//W3C//DTD SVG 1.1//EN" "http://www.w3.org/Graphics/SVG/1.1/DTD/svg11.dtd">
<svg width="198pt" height="86pt" viewBox="0 0 198 86" version="1.1" xmlns="http://www.w3.org/2000/svg">
<g id="#ffffffff">
</g>
<g id="#c9c9c5ff">
<path fill="#c9c9c5" opacity="1.00" d=" M 22.00 17.03 C 25.28 16.98 28.57 16.97 31.85 17.02 C 31.86 18.68 31.87 20.33 31.88 21.98 C 30.25 21.98 28.62 21.97 26.98 21.98 C 25.31 21.98 23.64 21.99 21.97 22.01 C 21.99 20.35 22.00 18.69 22.00 17.03 Z" />
</g>
<g id="#c3bcafff">
<path fill="#c3bcaf" opacity="1.00" d=" M 31.85 17.02 C 42.26 16.97 52.66 17.03 63.06 17.01 C 63.05 18.67 63.04 20.34 63.02 22.01 C 52.64 22.01 42.26 22.01 31.88 21.98 C 31.87 20.33 31.86 18.68 31.85 17.02 Z" />
</g>
<g id="#bfc1bdff">
<path fill="#bfc1bd" opacity="1.00" d=" M 63.06 17.01 C 83.70 16.96 104.35 17.06 124.99 17.02 C 125.00 18.68 125.02 20.34 125.04 22.00 C 104.36 22.02 83.69 21.94 63.02 22.01 C 63.04 20.34 63.05 18.67 63.06 17.01 Z" />
</g>
<g id="#c3bfb4ff">
<path fill="#c3bfb4" opacity="1.00" d=" M 124.99 17.02 C 135.30 16.98 145.60 17.00 155.91 17.02 C 155.90 18.68 155.89 20.34 155.89 21.99 C 145.61 21.99 135.32 22.00 125.04 22.00 C 125.02 20.34 125.00 18.68 124.99 17.02 Z" />
</g>
<g id="#bcbac4ff">
<path fill="#bcbac4" opacity="1.00" d=" M 155.91 17.02 C 159.60 17.04 163.30 16.98 166.99 17.00 C 166.99 18.67 166.99 20.33 167.01 22.00 C 163.30 22.00 159.60 22.01 155.89 21.99 C 155.89 20.34 155.90 18.68 155.91 17.02 Z" />
</g>
<g id="#4c4841ff">
<path fill="#4c4841" opacity="1.00" d=" M 21.97 22.01 C 23.64 21.99 25.31 21.98 26.98 21.98 C 26.98 23.69 26.98 25.40 26.98 27.11 C 25.31 27.05 23.64 27.00 21.97 26.94 C 21.98 25.29 21.98 23.65 21.97 22.01 Z" />
</g>
<g id="#170000ff">
<path fill="#170000" opacity="1.00" d=" M 26.98 21.98 C 28.62 21.97 30.25 21.98 31.88 21.98 C 42.26 22.01 52.64 22.01 63.02 22.01 C 83.69 21.94 104.36 22.02 125.04 22.00 C 135.32 22.00 145.61 21.99 155.89 21.99 C 155.92 23.68 155.95 25.36 155.98 27.05 C 152.70 27.03 149.43 27.06 146.16 27.04 C 144.42 27.02 142.68 26.99 140.95 26.97 C 132.30 26.95 123.66 26.98 115.03 26.98 C 108.04 27.03 101.05 27.01 94.06 27.02 C 90.72 27.04 87.39 27.03 84.05 27.02 C 73.71 27.01 63.38 26.94 53.04 27.02 C 50.99 27.02 48.95 27.01 46.91 27.02 C 41.93 27.07 36.96 26.96 31.98 27.01 C 30.32 27.03 28.65 27.07 26.98 27.11 C 26.98 25.40 26.98 23.69 26.98 21.98 Z" />
</g>
<g id="#0a0001ff">
<path fill="#0a0001" opacity="1.00" d=" M 155.89 21.99 C 159.60 22.01 163.30 22.00 167.01 22.00 C 167.00 23.66 166.99 25.32 167.00 26.99 C 164.97 27.05 162.94 27.11 160.92 27.12 C 159.27 27.12 157.62 27.08 155.98 27.05 C 155.95 25.36 155.92 23.68 155.89 21.99 Z" />
</g>
<g id="#4c3b2cff">
<path fill="#4c3b2c" opacity="1.00" d=" M 21.97 26.94 C 23.64 27.00 25.31 27.05 26.98 27.11 C 26.99 29.10 27.00 31.10 27.00 33.10 C 26.96 38.04 27.06 42.99 27.03 47.93 C 27.02 49.62 27.01 51.31 26.99 52.99 C 25.32 52.98 23.65 52.96 21.97 52.94 C 21.95 44.27 21.97 35.61 21.97 26.94 Z" />
</g>
<g id="#2d1701ff">
<path fill="#2d1701" opacity="1.00" d=" M 26.98 27.11 C 28.65 27.07 30.32 27.03 31.98 27.01 C 31.99 28.95 32.00 30.89 32.01 32.83 C 30.34 32.91 28.67 33.00 27.00 33.10 C 27.00 31.10 26.99 29.10 26.98 27.11 Z" />
</g>
<g id="#8c653eff">
<path fill="#8c653e" opacity="1.00" d=" M 31.98 27.01 C 36.96 26.96 41.93 27.07 46.91 27.02 C 46.95 29.00 46.99 30.98 47.03 32.96 C 43.67 32.93 40.32 32.97 36.96 32.94 C 35.31 32.92 33.66 32.87 32.01 32.83 C 32.00 30.89 31.99 28.95 31.98 27.01 Z" />
</g>
<g id="#a26e39ff">
<path fill="#a26e39" opacity="1.00" d=" M 46.91 27.02 C 48.95 27.01 50.99 27.02 53.04 27.02 C 52.99 29.03 52.94 31.04 52.90 33.06 C 50.94 33.05 48.99 33.00 47.03 32.96 C 46.99 30.98 46.95 29.00 46.91 27.02 Z" />
</g>
<g id="#9c5f24ff">
<path fill="#9c5f24" opacity="1.00" d=" M 53.04 27.02 C 63.38 26.94 73.71 27.01 84.05 27.02 C 84.05 29.02 84.04 31.02 84.04 33.03 C 75.49 32.57 66.94 33.12 58.39 33.08 C 56.56 33.05 54.73 33.06 52.90 33.06 C 52.94 31.04 52.99 29.03 53.04 27.02 Z" />
</g>
<g id="#8e622bff">
<path fill="#8e622b" opacity="1.00" d=" M 84.05 27.02 C 87.39 27.03 90.72 27.04 94.06 27.02 C 94.04 29.00 94.03 30.98 94.01 32.95 C 92.34 32.94 90.67 32.94 89.00 32.95 C 87.34 32.96 85.69 32.99 84.04 33.03 C 84.04 31.02 84.05 29.02 84.05 27.02 Z" />
</g>
<g id="#9d6026ff">
<path fill="#9d6026" opacity="1.00" d=" M 94.06 27.02 C 101.05 27.01 108.04 27.03 115.03 26.98 C 115.04 28.96 115.06 30.95 115.07 32.94 C 113.41 32.98 111.75 33.02 110.09 33.04 C 106.40 33.06 102.71 33.08 99.02 33.09 C 97.35 33.07 95.68 33.01 94.01 32.95 C 94.03 30.98 94.04 29.00 94.06 27.02 Z" />
</g>
<g id="#a25d1cff">
<path fill="#a25d1c" opacity="1.00" d=" M 115.03 26.98 C 123.66 26.98 132.30 26.95 140.95 26.97 C 140.88 29.02 140.80 31.08 140.74 33.13 C 132.19 32.96 123.63 32.93 115.07 32.94 C 115.06 30.95 115.04 28.96 115.03 26.98 Z" />
</g>
<g id="#a06d34ff">
<path fill="#a06d34" opacity="1.00" d=" M 140.95 26.97 C 142.68 26.99 144.42 27.02 146.16 27.04 C 146.11 28.99 146.06 30.94 146.02 32.88 C 144.26 32.96 142.50 33.05 140.74 33.13 C 140.80 31.08 140.88 29.02 140.95 26.97 Z" />
</g>
<g id="#866243ff">
<path fill="#866243" opacity="1.00" d=" M 146.16 27.04 C 149.43 27.06 152.70 27.03 155.98 27.05 C 155.97 29.04 155.97 31.02 155.99 33.01 C 152.66 32.93 149.34 32.90 146.02 32.88 C 146.06 30.94 146.11 28.99 146.16 27.04 Z" />
</g>
<g id="#5f3e25ff">
<path fill="#5f3e25" opacity="1.00" d=" M 155.98 27.05 C 157.62 27.08 159.27 27.12 160.92 27.12 C 160.90 34.07 161.08 41.02 161.00 47.97 C 159.31 47.98 157.63 47.99 155.94 47.99 C 155.94 46.33 155.94 44.68 155.96 43.02 C 156.01 39.69 156.03 36.35 155.99 33.01 C 155.97 31.02 155.97 29.04 155.98 27.05 Z" />
</g>
<g id="#1e0000ff">
<path fill="#1e0000" opacity="1.00" d=" M 160.92 27.12 C 162.94 27.11 164.97 27.05 167.00 26.99 C 167.00 33.96 166.99 40.94 167.00 47.91 C 165.00 47.93 163.00 47.96 161.00 47.97 C 161.08 41.02 160.90 34.07 160.92 27.12 Z" />
</g>
<g id="#412803ff">
<path fill="#412803" opacity="1.00" d=" M 27.00 33.10 C 28.67 33.00 30.34 32.91 32.01 32.83 C 32.01 37.88 31.96 42.94 31.97 47.99 C 30.32 47.98 28.68 47.96 27.03 47.93 C 27.06 42.99 26.96 38.04 27.00 33.10 Z" />
</g>
<g id="#a88459ff">
<path fill="#a88459" opacity="1.00" d=" M 32.01 32.83 C 33.66 32.87 35.31 32.92 36.96 32.94 C 36.99 36.32 36.99 39.70 37.01 43.09 C 37.03 44.72 37.05 46.34 37.07 47.97 C 35.37 47.98 33.67 47.99 31.97 47.99 C 31.96 42.94 32.01 37.88 32.01 32.83 Z" />
</g>
<g id="#5b2002ff">
<path fill="#5b2002" opacity="1.00" d=" M 36.96 32.94 C 40.32 32.97 43.67 32.93 47.03 32.96 C 47.04 36.29 47.04 39.63 47.04 42.97 C 43.69 43.05 40.35 43.06 37.01 43.09 C 36.99 39.70 36.99 36.32 36.96 32.94 Z" />
</g>
<g id="#cb7c33ff">
<path fill="#cb7c33" opacity="1.00" d=" M 47.03 32.96 C 48.99 33.00 50.94 33.05 52.90 33.06 C 54.73 33.06 56.56 33.05 58.39 33.08 C 58.23 34.62 58.08 36.16 57.96 37.70 C 56.40 38.00 54.83 38.29 53.27 38.60 C 53.33 39.88 53.40 41.16 53.46 42.44 C 63.63 43.10 73.83 43.45 84.02 43.19 C 84.01 44.78 84.02 46.37 84.03 47.96 C 73.80 48.02 63.56 48.05 53.33 47.98 C 53.19 46.38 53.06 44.78 52.94 43.18 C 50.97 43.12 49.00 43.05 47.04 42.97 C 47.04 39.63 47.04 36.29 47.03 32.96 Z" />
</g>
<g id="#dc7b22ff">
<path fill="#dc7b22" opacity="1.00" d=" M 58.39 33.08 C 66.94 33.12 75.49 32.57 84.04 33.03 C 84.07 36.41 84.03 39.80 84.02 43.19 C 73.83 43.45 63.63 43.10 53.46 42.44 C 53.40 41.16 53.33 39.88 53.27 38.60 C 54.83 38.29 56.40 38.00 57.96 37.70 C 58.08 36.16 58.23 34.62 58.39 33.08 Z" />
</g>
<g id="#c3853cff">
<path fill="#c3853c" opacity="1.00" d=" M 84.04 33.03 C 85.69 32.99 87.34 32.96 89.00 32.95 C 89.01 36.29 89.02 39.64 88.96 42.99 C 88.91 44.65 88.84 46.31 88.78 47.97 C 87.19 47.97 85.61 47.96 84.03 47.96 C 84.02 46.37 84.01 44.78 84.02 43.19 C 84.03 39.80 84.07 36.41 84.04 33.03 Z" />
</g>
<g id="#3f0000ff">
<path fill="#3f0000" opacity="1.00" d=" M 89.00 32.95 C 90.67 32.94 92.34 32.94 94.01 32.95 C 94.02 36.31 94.05 39.67 94.12 43.03 C 92.40 43.02 90.68 43.01 88.96 42.99 C 89.02 39.64 89.01 36.29 89.00 32.95 Z" />
</g>
<g id="#843d07ff">
<path fill="#843d07" opacity="1.00" d=" M 94.01 32.95 C 95.68 33.01 97.35 33.07 99.02 33.09 C 99.04 36.41 99.06 39.73 99.06 43.05 C 97.41 43.04 95.77 43.04 94.12 43.03 C 94.05 39.67 94.02 36.31 94.01 32.95 Z" />
</g>
<g id="#d47e2eff">
<path fill="#d47e2e" opacity="1.00" d=" M 99.02 33.09 C 102.71 33.08 106.40 33.06 110.09 33.04 C 110.06 36.36 110.01 39.67 109.92 42.98 C 107.94 42.98 105.97 43.01 103.99 43.04 C 102.34 43.05 100.70 43.06 99.06 43.05 C 99.06 39.73 99.04 36.41 99.02 33.09 Z" />
</g>
<g id="#df7a21ff">
<path fill="#df7a21" opacity="1.00" d=" M 110.09 33.04 C 111.75 33.02 113.41 32.98 115.07 32.94 C 123.63 32.93 132.19 32.96 140.74 33.13 C 140.77 36.24 140.62 39.34 140.47 42.45 C 130.32 43.55 120.10 43.24 109.92 42.98 C 110.01 39.67 110.06 36.36 110.09 33.04 Z" />
</g>
<g id="#c97f35ff">
<path fill="#c97f35" opacity="1.00" d=" M 140.74 33.13 C 142.50 33.05 144.26 32.96 146.02 32.88 C 145.95 36.26 145.93 39.63 145.93 43.01 C 144.32 43.09 142.70 43.16 141.09 43.23 C 140.97 44.82 140.86 46.41 140.73 48.00 C 128.49 48.00 116.25 48.02 104.00 48.01 C 104.00 46.35 103.99 44.69 103.99 43.04 C 105.97 43.01 107.94 42.98 109.92 42.98 C 120.10 43.24 130.32 43.55 140.47 42.45 C 140.62 39.34 140.77 36.24 140.74 33.13 Z" />
</g>
<g id="#552002ff">
<path fill="#552002" opacity="1.00" d=" M 146.02 32.88 C 149.34 32.90 152.66 32.93 155.99 33.01 C 156.03 36.35 156.01 39.69 155.96 43.02 C 152.62 43.07 149.27 43.06 145.93 43.01 C 145.93 39.63 145.95 36.26 146.02 32.88 Z" />
</g>
<g id="#a57040ff">
<path fill="#a57040" opacity="1.00" d=" M 37.01 43.09 C 40.35 43.06 43.69 43.05 47.04 42.97 C 47.01 44.65 46.98 46.32 46.95 48.00 C 43.66 47.98 40.36 47.95 37.07 47.97 C 37.05 46.34 37.03 44.72 37.01 43.09 Z" />
</g>
<g id="#c48749ff">
<path fill="#c48749" opacity="1.00" d=" M 47.04 42.97 C 49.00 43.05 50.97 43.12 52.94 43.18 C 53.06 44.78 53.19 46.38 53.33 47.98 C 51.21 47.98 49.08 48.00 46.95 48.00 C 46.98 46.32 47.01 44.65 47.04 42.97 Z" />
</g>
<g id="#9f6a2eff">
<path fill="#9f6a2e" opacity="1.00" d=" M 88.96 42.99 C 90.68 43.01 92.40 43.02 94.12 43.03 C 94.10 44.68 94.08 46.33 94.06 47.98 C 92.30 47.98 90.54 47.98 88.78 47.97 C 88.84 46.31 88.91 44.65 88.96 42.99 Z" />
</g>
<g id="#ba7b3aff">
<path fill="#ba7b3a" opacity="1.00" d=" M 94.12 43.03 C 95.77 43.04 97.41 43.04 99.06 43.05 C 100.70 43.06 102.34 43.05 103.99 43.04 C 103.99 44.69 104.00 46.35 104.00 48.01 C 100.69 47.99 97.37 47.97 94.06 47.98 C 94.08 46.33 94.10 44.68 94.12 43.03 Z" />
</g>
<g id="#c0894bff">
<path fill="#c0894b" opacity="1.00" d=" M 141.09 43.23 C 142.70 43.16 144.32 43.09 145.93 43.01 C 145.98 44.66 146.03 46.32 146.07 47.99 C 144.29 47.99 142.51 48.00 140.73 48.00 C 140.86 46.41 140.97 44.82 141.09 43.23 Z" />
</g>
<g id="#9c714cff">
<path fill="#9c714c" opacity="1.00" d=" M 145.93 43.01 C 149.27 43.06 152.62 43.07 155.96 43.02 C 155.94 44.68 155.94 46.33 155.94 47.99 C 152.65 47.96 149.36 47.96 146.07 47.99 C 146.03 46.32 145.98 44.66 145.93 43.01 Z" />
</g>
<g id="#1c0000ff">
<path fill="#1c0000" opacity="1.00" d=" M 27.03 47.93 C 28.68 47.96 30.32 47.98 31.97 47.99 C 33.67 47.99 35.37 47.98 37.07 47.97 C 40.36 47.95 43.66 47.98 46.95 48.00 C 49.08 48.00 51.21 47.98 53.33 47.98 C 63.56 48.05 73.80 48.02 84.03 47.96 C 85.61 47.96 87.19 47.97 88.78 47.97 C 90.54 47.98 92.30 47.98 94.06 47.98 C 97.37 47.97 100.69 47.99 104.00 48.01 C 116.25 48.02 128.49 48.00 140.73 48.00 C 142.51 48.00 144.29 47.99 146.07 47.99 C 149.36 47.96 152.65 47.96 155.94 47.99 C 155.96 49.66 155.99 51.34 156.01 53.02 C 113.00 52.98 70.00 53.02 26.99 52.99 C 27.01 51.31 27.02 49.62 27.03 47.93 Z" />
</g>
<g id="#0e0000ff">
<path fill="#0e0000" opacity="1.00" d=" M 155.94 47.99 C 157.63 47.99 159.31 47.98 161.00 47.97 C 163.00 47.96 165.00 47.93 167.00 47.91 C 166.99 49.62 166.99 51.32 167.00 53.03 C 163.34 53.00 159.67 52.99 156.01 53.02 C 155.99 51.34 155.96 49.66 155.94 47.99 Z" />
</g>
<g id="#9f9c98ff">
<path fill="#9f9c98" opacity="1.00" d=" M 21.97 52.94 C 23.65 52.96 25.32 52.98 26.99 52.99 C 26.98 54.66 26.96 56.33 26.95 58.00 C 25.29 57.99 23.63 57.99 21.98 58.00 C 21.98 56.31 21.98 54.63 21.97 52.94 Z" />
</g>
<g id="#837f77ff">
<path fill="#837f77" opacity="1.00" d=" M 26.99 52.99 C 70.00 53.02 113.00 52.98 156.01 53.02 C 159.67 52.99 163.34 53.00 167.00 53.03 C 166.99 54.68 166.99 56.34 167.00 58.00 C 120.32 58.04 73.63 58.01 26.95 58.00 C 26.96 56.33 26.98 54.66 26.99 52.99 Z" />
</g>
</svg>
