<?xml version="1.0" encoding="UTF-8" ?>
<!DOCTYPE svg PUBLIC "-//W3C//DTD SVG 1.1//EN" "http://www.w3.org/Graphics/SVG/1.1/DTD/svg11.dtd">
<svg width="200pt" height="118pt" viewBox="0 0 200 118" version="1.1" xmlns="http://www.w3.org/2000/svg">
<g id="#fdfefdff">
</g>
<g id="#6d7378ff">
<path fill="#6d7378" opacity="1.00" d=" M 26.05 26.00 C 24.88 21.84 26.84 19.88 31.00 21.05 C 31.00 22.70 30.99 24.34 30.99 25.99 C 29.34 25.99 27.70 26.00 26.05 26.00 Z" />
</g>
<g id="#493f37ff">
<path fill="#493f37" opacity="1.00" d=" M 31.00 21.05 C 77.66 20.98 124.34 20.92 171.00 21.08 C 171.00 22.71 171.00 24.35 171.01 25.99 C 169.01 25.99 167.00 26.00 165.00 26.02 C 130.67 25.98 96.34 25.99 62.00 26.02 C 58.34 25.99 54.68 25.97 51.01 26.01 C 46.01 25.99 41.00 25.96 36.00 26.02 C 34.33 26.00 32.66 26.00 30.99 25.99 C 30.99 24.34 31.00 22.70 31.00 21.05 Z" />
</g>
<g id="#737373ff">
<path fill="#737373" opacity="1.00" d=" M 171.00 21.08 C 175.16 19.87 177.12 21.84 175.95 26.00 C 174.30 26.00 172.65 25.99 171.01 25.99 C 171.00 24.35 171.00 22.71 171.00 21.08 Z" />
</g>
<g id="#494033ff">
<path fill="#494033" opacity="1.00" d=" M 26.05 26.00 C 27.70 26.00 29.34 25.99 30.99 25.99 C 30.99 27.66 31.00 29.33 31.02 31.00 C 30.96 50.00 31.02 69.00 31.00 88.00 C 29.35 88.00 27.70 88.00 26.05 88.00 C 25.95 67.34 25.95 46.67 26.05 26.00 Z" />
</g>
<g id="#110600ff">
<path fill="#110600" opacity="1.00" d=" M 30.99 25.99 C 32.66 26.00 34.33 26.00 36.00 26.02 C 36.00 27.68 36.00 29.34 35.99 31.00 C 34.34 31.00 32.68 31.00 31.02 31.00 C 31.00 29.33 30.99 27.66 30.99 25.99 Z" />
</g>
<g id="#452503ff">
<path fill="#452503" opacity="1.00" d=" M 36.00 26.02 C 41.00 25.96 46.01 25.99 51.01 26.01 C 51.00 27.68 51.00 29.34 50.98 31.00 C 45.98 31.00 40.99 31.00 35.99 31.00 C 36.00 29.34 36.00 27.68 36.00 26.02 Z" />
</g>
<g id="#2d0500ff">
<path fill="#2d0500" opacity="1.00" d=" M 51.01 26.01 C 54.68 25.97 58.34 25.99 62.00 26.02 C 62.00 27.65 61.99 29.29 61.98 30.93 C 54.99 29.05 57.27 36.54 57.04 41.08 C 55.03 41.03 53.03 41.01 51.03 40.98 C 51.00 37.65 51.01 34.33 50.98 31.00 C 51.00 29.34 51.00 27.68 51.01 26.01 Z" />
</g>
<g id="#492002ff">
<path fill="#492002" opacity="1.00" d=" M 62.00 26.02 C 96.34 25.99 130.67 25.98 165.00 26.02 C 165.00 27.68 165.00 29.34 165.00 31.00 C 161.65 30.99 158.33 30.98 154.99 31.02 C 123.99 30.93 92.99 31.10 61.98 30.93 C 61.99 29.29 62.00 27.65 62.00 26.02 Z" />
</g>
<g id="#1b0000ff">
<path fill="#1b0000" opacity="1.00" d=" M 165.00 26.02 C 167.00 26.00 169.01 25.99 171.01 25.99 C 171.00 27.66 171.00 29.33 170.98 31.00 C 168.99 31.00 166.99 31.00 165.00 31.00 C 165.00 29.34 165.00 27.68 165.00 26.02 Z" />
</g>
<g id="#414141ff">
<path fill="#414141" opacity="1.00" d=" M 171.01 25.99 C 172.65 25.99 174.30 26.00 175.95 26.00 C 176.05 46.66 176.05 67.33 175.95 88.00 C 174.30 88.00 172.65 88.00 171.01 88.01 C 171.00 86.34 171.00 84.67 170.98 83.00 C 171.02 65.67 171.02 48.33 170.98 31.00 C 171.00 29.33 171.00 27.66 171.01 25.99 Z" />
</g>
<g id="#472002ff">
<path fill="#472002" opacity="1.00" d=" M 31.02 31.00 C 32.68 31.00 34.34 31.00 35.99 31.00 C 35.99 34.37 35.98 37.74 36.03 41.12 C 35.99 49.71 35.96 58.31 36.01 66.91 C 35.93 72.24 35.95 77.57 36.09 82.90 C 51.75 83.18 67.42 82.94 83.09 82.98 C 88.05 83.00 93.02 83.04 97.99 82.99 C 101.32 83.00 104.66 83.03 108.00 82.99 C 121.94 83.01 135.89 83.03 149.83 82.97 C 151.52 82.99 153.20 82.99 154.89 82.97 C 158.25 82.99 161.63 83.01 165.00 83.00 C 165.00 84.66 165.00 86.32 165.00 87.98 C 120.33 88.03 75.67 87.98 31.00 88.00 C 31.02 69.00 30.96 50.00 31.02 31.00 Z" />
</g>
<g id="#ba7832ff">
<path fill="#ba7832" opacity="1.00" d=" M 35.99 31.00 C 40.99 31.00 45.98 31.00 50.98 31.00 C 51.01 34.33 51.00 37.65 51.03 40.98 C 51.00 43.01 51.00 45.03 50.99 47.05 C 40.74 50.53 51.69 32.33 41.50 36.14 C 43.68 42.10 38.80 40.66 36.03 41.12 C 35.98 37.74 35.99 34.37 35.99 31.00 Z" />
</g>
<g id="#904c12ff">
<path fill="#904c12" opacity="1.00" d=" M 57.04 41.08 C 57.27 36.54 54.99 29.05 61.98 30.93 C 62.01 32.63 62.05 34.32 62.08 36.01 C 62.91 40.05 61.10 41.91 57.04 41.08 Z" />
</g>
<g id="#c87f36ff">
<path fill="#c87f36" opacity="1.00" d=" M 61.98 30.93 C 92.99 31.10 123.99 30.93 154.99 31.02 C 155.00 32.65 155.01 34.28 155.03 35.91 C 154.99 37.64 154.96 39.37 154.92 41.11 C 152.18 40.67 147.36 42.09 149.47 36.19 C 120.35 35.71 91.21 36.14 62.08 36.01 C 62.05 34.32 62.01 32.63 61.98 30.93 Z" />
</g>
<g id="#945e29ff">
<path fill="#945e29" opacity="1.00" d=" M 154.99 31.02 C 158.33 30.98 161.65 30.99 165.00 31.00 C 164.99 34.33 165.02 37.67 164.98 41.00 C 163.34 41.00 161.71 40.99 160.08 40.98 C 160.90 36.93 159.08 35.10 155.03 35.91 C 155.01 34.28 155.00 32.65 154.99 31.02 Z" />
</g>
<g id="#511e01ff">
<path fill="#511e01" opacity="1.00" d=" M 165.00 31.00 C 166.99 31.00 168.99 31.00 170.98 31.00 C 171.02 48.33 171.02 65.67 170.98 83.00 C 168.98 83.00 166.99 83.00 165.00 83.00 C 164.98 69.00 165.03 55.00 164.98 41.00 C 165.02 37.67 164.99 34.33 165.00 31.00 Z" />
</g>
<g id="#de7a20ff">
<path fill="#de7a20" opacity="1.00" d=" M 41.50 36.14 C 51.69 32.33 40.74 50.53 50.99 47.05 C 56.44 48.56 58.46 46.56 57.04 41.08 C 61.10 41.91 62.91 40.05 62.08 36.01 C 91.21 36.14 120.35 35.71 149.47 36.19 C 147.36 42.09 152.18 40.67 154.92 41.11 C 153.20 46.36 155.82 47.63 159.97 47.10 C 159.97 57.22 160.25 67.35 159.81 77.47 C 153.87 75.36 155.34 80.22 154.89 82.97 C 153.20 82.99 151.52 82.99 149.83 82.97 C 149.31 79.69 151.50 78.60 154.37 78.28 C 151.41 76.57 142.12 81.10 144.53 73.13 L 140.45 73.14 L 139.51 77.79 C 129.01 78.27 118.50 77.93 108.00 78.01 C 107.99 72.66 108.04 67.33 108.02 61.99 C 111.10 54.16 94.91 54.16 97.97 61.99 C 97.95 67.33 97.97 72.67 98.02 78.01 C 98.00 79.67 98.00 81.33 97.99 82.99 C 93.02 83.04 88.05 83.00 83.09 82.98 C 83.03 81.35 82.99 79.71 82.82 78.08 C 68.93 77.68 55.02 78.34 41.14 77.90 C 40.71 73.07 43.42 64.93 36.01 66.91 C 35.96 58.31 35.99 49.71 36.03 41.12 C 38.80 40.66 43.68 42.10 41.50 36.14 Z" />
</g>
<g id="#480000ff">
<path fill="#480000" opacity="1.00" d=" M 155.03 35.91 C 159.08 35.10 160.90 36.93 160.08 40.98 C 158.36 41.01 156.64 41.05 154.92 41.11 C 154.96 39.37 154.99 37.64 155.03 35.91 Z" />
</g>
<g id="#974a0bff">
<path fill="#974a0b" opacity="1.00" d=" M 51.03 40.98 C 53.03 41.01 55.03 41.03 57.04 41.08 C 58.46 46.56 56.44 48.56 50.99 47.05 C 51.00 45.03 51.00 43.01 51.03 40.98 Z" />
</g>
<g id="#9e4509ff">
<path fill="#9e4509" opacity="1.00" d=" M 154.92 41.11 C 156.64 41.05 158.36 41.01 160.08 40.98 C 160.03 43.02 160.00 45.06 159.97 47.10 C 155.82 47.63 153.20 46.36 154.92 41.11 Z" />
</g>
<g id="#c48039ff">
<path fill="#c48039" opacity="1.00" d=" M 160.08 40.98 C 161.71 40.99 163.34 41.00 164.98 41.00 C 165.03 55.00 164.98 69.00 165.00 83.00 C 161.63 83.01 158.25 82.99 154.89 82.97 C 155.34 80.22 153.87 75.36 159.81 77.47 C 160.25 67.35 159.97 57.22 159.97 47.10 C 160.00 45.06 160.03 43.02 160.08 40.98 Z" />
</g>
<g id="#bc6a25ff">
<path fill="#bc6a25" opacity="1.00" d=" M 97.97 61.99 C 94.91 54.16 111.10 54.16 108.02 61.99 C 106.35 62.00 104.67 62.00 103.00 62.02 C 101.32 62.00 99.64 62.00 97.97 61.99 Z" />
</g>
<g id="#4d0500ff">
<path fill="#4d0500" opacity="1.00" d=" M 97.97 61.99 C 99.64 62.00 101.32 62.00 103.00 62.02 C 103.00 67.34 103.00 72.66 103.00 77.98 C 101.34 78.00 99.68 78.00 98.02 78.01 C 97.97 72.67 97.95 67.33 97.97 61.99 Z" />
</g>
<g id="#6c2b04ff">
<path fill="#6c2b04" opacity="1.00" d=" M 103.00 62.02 C 104.67 62.00 106.35 62.00 108.02 61.99 C 108.04 67.33 107.99 72.66 108.00 78.01 C 106.33 78.00 104.66 77.99 103.00 77.98 C 103.00 72.66 103.00 67.34 103.00 62.02 Z" />
</g>
<g id="#cb8036ff">
<path fill="#cb8036" opacity="1.00" d=" M 36.01 66.91 C 43.42 64.93 40.71 73.07 41.14 77.90 C 55.02 78.34 68.93 77.68 82.82 78.08 C 82.99 79.71 83.03 81.35 83.09 82.98 C 67.42 82.94 51.75 83.18 36.09 82.90 C 35.95 77.57 35.93 72.24 36.01 66.91 Z" />
</g>
<g id="#cb8234ff">
<path fill="#cb8234" opacity="1.00" d=" M 140.45 73.14 L 144.53 73.13 C 142.12 81.10 151.41 76.57 154.37 78.28 C 151.50 78.60 149.31 79.69 149.83 82.97 C 135.89 83.03 121.94 83.01 108.00 82.99 C 108.00 81.33 108.00 79.67 108.00 78.01 C 118.50 77.93 129.01 78.27 139.51 77.79 L 140.45 73.14 Z" />
</g>
<g id="#96683aff">
<path fill="#96683a" opacity="1.00" d=" M 98.02 78.01 C 99.68 78.00 101.34 78.00 103.00 77.98 C 104.66 77.99 106.33 78.00 108.00 78.01 C 108.00 79.67 108.00 81.33 108.00 82.99 C 104.66 83.03 101.32 83.00 97.99 82.99 C 98.00 81.33 98.00 79.67 98.02 78.01 Z" />
</g>
<g id="#170000ff">
<path fill="#170000" opacity="1.00" d=" M 165.00 83.00 C 166.99 83.00 168.98 83.00 170.98 83.00 C 171.00 84.67 171.00 86.34 171.01 88.01 C 169.01 88.01 167.00 88.00 165.00 87.98 C 165.00 86.32 165.00 84.66 165.00 83.00 Z" />
</g>
<g id="#707377ff">
<path fill="#707377" opacity="1.00" d=" M 26.05 88.00 C 27.70 88.00 29.35 88.00 31.00 88.00 C 31.00 89.64 31.00 91.28 31.00 92.92 C 26.84 94.13 24.88 92.16 26.05 88.00 Z" />
</g>
<g id="#484035ff">
<path fill="#484035" opacity="1.00" d=" M 31.00 88.00 C 75.67 87.98 120.33 88.03 165.00 87.98 C 167.00 88.00 169.01 88.01 171.01 88.01 C 171.00 89.65 171.00 91.30 171.00 92.95 C 124.34 93.02 77.66 93.08 31.00 92.92 C 31.00 91.28 31.00 89.64 31.00 88.00 Z" />
</g>
<g id="#7a7a7aff">
<path fill="#7a7a7a" opacity="1.00" d=" M 171.01 88.01 C 172.65 88.00 174.30 88.00 175.95 88.00 C 177.12 92.16 175.16 94.12 171.00 92.95 C 171.00 91.30 171.00 89.65 171.01 88.01 Z" />
</g>
</svg>
