<?xml version="1.0" encoding="UTF-8" ?>
<!DOCTYPE svg PUBLIC "-//W3C//DTD SVG 1.1//EN" "http://www.w3.org/Graphics/SVG/1.1/DTD/svg11.dtd">
<svg width="184pt" height="80pt" viewBox="0 0 184 80" version="1.1" xmlns="http://www.w3.org/2000/svg">
<g id="#fffefdff">
</g>
<g id="#777571ff">
<path fill="#777571" opacity="1.00" d=" M 16.94 20.00 C 18.62 20.00 20.29 20.02 21.97 20.03 C 21.96 21.69 21.95 23.34 21.94 25.00 C 20.30 24.97 18.65 24.94 17.01 24.91 C 16.98 23.28 16.96 21.64 16.94 20.00 Z" />
</g>
<g id="#463f37ff">
<path fill="#463f37" opacity="1.00" d=" M 21.97 20.03 C 68.65 19.94 115.33 19.98 162.01 20.02 C 162.00 21.64 161.99 23.27 161.98 24.89 C 158.35 25.01 154.71 25.15 151.08 25.14 C 109.74 24.93 68.40 24.92 27.06 25.07 C 25.35 25.05 23.65 25.03 21.94 25.00 C 21.95 23.34 21.96 21.69 21.97 20.03 Z" />
</g>
<g id="#4e4239ff">
<path fill="#4e4239" opacity="1.00" d=" M 17.01 24.91 C 18.65 24.94 20.30 24.97 21.94 25.00 C 21.93 26.67 21.93 28.34 21.92 30.01 C 21.87 35.36 22.05 40.71 22.10 46.07 C 22.10 49.37 22.02 52.67 21.96 55.97 C 20.34 55.99 18.72 56.02 17.10 56.05 C 16.90 45.67 16.94 35.29 17.01 24.91 Z" />
</g>
<g id="#0a0400ff">
<path fill="#0a0400" opacity="1.00" d=" M 21.94 25.00 C 23.65 25.03 25.35 25.05 27.06 25.07 C 27.03 26.71 27.01 28.35 26.98 30.00 C 25.29 30.00 23.61 30.00 21.92 30.01 C 21.93 28.34 21.93 26.67 21.94 25.00 Z" />
</g>
<g id="#30271fff">
<path fill="#30271f" opacity="1.00" d=" M 27.06 25.07 C 68.40 24.92 109.74 24.93 151.08 25.14 C 151.10 26.68 151.12 28.23 151.14 29.78 C 135.79 30.26 120.42 29.87 105.05 30.00 C 96.39 29.99 87.74 29.99 79.08 30.02 C 61.71 29.97 44.35 30.02 26.98 30.00 C 27.01 28.35 27.03 26.71 27.06 25.07 Z" />
</g>
<g id="#100000ff">
<path fill="#100000" opacity="1.00" d=" M 151.08 25.14 C 154.71 25.15 158.35 25.01 161.98 24.89 C 162.00 35.25 162.01 45.62 161.97 55.98 C 115.30 56.02 68.63 56.03 21.96 55.97 C 22.02 52.67 22.10 49.37 22.10 46.07 C 23.65 46.09 25.20 46.11 26.76 46.13 C 27.02 47.67 27.29 49.21 27.56 50.75 C 34.69 51.50 41.85 50.96 49.00 50.98 C 59.04 50.98 69.08 51.06 79.12 50.92 C 85.79 50.93 92.46 51.17 99.13 51.04 C 116.45 50.87 133.77 51.20 151.08 50.98 C 152.56 50.88 154.05 50.73 155.54 50.60 C 155.70 49.03 155.86 47.47 155.99 45.90 C 156.36 40.75 156.22 35.58 155.76 30.44 C 154.22 30.21 152.68 29.99 151.14 29.78 C 151.12 28.23 151.10 26.68 151.08 25.14 Z" />
</g>
<g id="#431f02ff">
<path fill="#431f02" opacity="1.00" d=" M 21.92 30.01 C 23.61 30.00 25.29 30.00 26.98 30.00 C 27.10 35.37 27.15 40.76 26.76 46.13 C 25.20 46.11 23.65 46.09 22.10 46.07 C 22.05 40.71 21.87 35.36 21.92 30.01 Z" />
</g>
<g id="#c7823cff">
<path fill="#c7823c" opacity="1.00" d=" M 26.98 30.00 C 44.35 30.02 61.71 29.97 79.08 30.02 C 79.10 31.59 79.13 33.16 79.15 34.73 C 65.09 35.36 51.01 34.81 36.95 35.00 C 35.34 35.05 33.73 35.14 32.12 35.23 C 31.91 38.80 31.84 42.38 31.89 45.96 C 30.18 46.00 28.47 46.07 26.76 46.13 C 27.15 40.76 27.10 35.37 26.98 30.00 Z" />
</g>
<g id="#de7a21ff">
<path fill="#de7a21" opacity="1.00" d=" M 79.08 30.02 C 87.74 29.99 96.39 29.99 105.05 30.00 C 105.02 31.61 104.99 33.22 104.96 34.83 C 103.10 35.08 101.24 35.33 99.38 35.60 C 99.07 39.05 98.93 42.52 98.98 45.99 C 94.04 45.98 89.11 45.91 84.17 45.94 C 84.20 42.57 84.01 39.20 83.62 35.85 C 82.13 35.47 80.64 35.10 79.15 34.73 C 79.13 33.16 79.10 31.59 79.08 30.02 Z" />
</g>
<g id="#ca8034ff">
<path fill="#ca8034" opacity="1.00" d=" M 105.05 30.00 C 120.42 29.87 135.79 30.26 151.14 29.78 C 151.01 35.21 150.99 40.65 150.96 46.08 C 149.33 46.08 147.70 46.08 146.08 46.06 C 146.04 42.44 145.94 38.83 145.76 35.22 C 132.16 34.67 118.55 35.31 104.96 34.83 C 104.99 33.22 105.02 31.61 105.05 30.00 Z" />
</g>
<g id="#69461fff">
<path fill="#69461f" opacity="1.00" d=" M 151.14 29.78 C 152.68 29.99 154.22 30.21 155.76 30.44 C 156.22 35.58 156.36 40.75 155.99 45.90 C 154.31 45.96 152.63 46.02 150.96 46.08 C 150.99 40.65 151.01 35.21 151.14 29.78 Z" />
</g>
<g id="#793a06ff">
<path fill="#793a06" opacity="1.00" d=" M 32.12 35.23 C 33.73 35.14 35.34 35.05 36.95 35.00 C 36.91 38.64 36.87 42.29 36.85 45.93 C 35.20 45.93 33.54 45.93 31.89 45.96 C 31.84 42.38 31.91 38.80 32.12 35.23 Z" />
</g>
<g id="#531c01ff">
<path fill="#531c01" opacity="1.00" d=" M 36.95 35.00 C 51.01 34.81 65.09 35.36 79.15 34.73 C 79.03 38.48 78.99 42.23 79.00 45.98 C 64.95 45.82 50.90 46.09 36.85 45.93 C 36.87 42.29 36.91 38.64 36.95 35.00 Z" />
</g>
<g id="#b06015ff">
<path fill="#b06015" opacity="1.00" d=" M 79.15 34.73 C 80.64 35.10 82.13 35.47 83.62 35.85 C 84.01 39.20 84.20 42.57 84.17 45.94 C 82.45 45.95 80.72 45.96 79.00 45.98 C 78.99 42.23 79.03 38.48 79.15 34.73 Z" />
</g>
<g id="#ae5c12ff">
<path fill="#ae5c12" opacity="1.00" d=" M 99.38 35.60 C 101.24 35.33 103.10 35.08 104.96 34.83 C 104.99 36.90 105.02 38.98 105.03 41.05 C 105.02 42.67 105.00 44.29 104.98 45.90 C 102.98 45.91 100.98 45.94 98.98 45.99 C 98.93 42.52 99.07 39.05 99.38 35.60 Z" />
</g>
<g id="#591c01ff">
<path fill="#591c01" opacity="1.00" d=" M 104.96 34.83 C 118.55 35.31 132.16 34.67 145.76 35.22 C 145.94 38.83 146.04 42.44 146.08 46.06 C 144.57 46.04 143.07 46.00 141.57 45.98 C 140.99 44.56 140.42 43.13 139.85 41.71 C 136.61 41.05 133.31 40.69 129.99 40.79 C 121.67 40.95 113.35 40.98 105.03 41.05 C 105.02 38.98 104.99 36.90 104.96 34.83 Z" />
</g>
<g id="#432102ff">
<path fill="#432102" opacity="1.00" d=" M 105.03 41.05 C 113.35 40.98 121.67 40.95 129.99 40.79 C 133.31 40.69 136.61 41.05 139.85 41.71 C 140.42 43.13 140.99 44.56 141.57 45.98 C 129.37 45.96 117.17 46.02 104.98 45.90 C 105.00 44.29 105.02 42.67 105.03 41.05 Z" />
</g>
<g id="#5d442aff">
<path fill="#5d442a" opacity="1.00" d=" M 26.76 46.13 C 28.47 46.07 30.18 46.00 31.89 45.96 C 33.54 45.93 35.20 45.93 36.85 45.93 C 50.90 46.09 64.95 45.82 79.00 45.98 C 79.04 47.63 79.08 49.27 79.12 50.92 C 69.08 51.06 59.04 50.98 49.00 50.98 C 41.85 50.96 34.69 51.50 27.56 50.75 C 27.29 49.21 27.02 47.67 26.76 46.13 Z" />
</g>
<g id="#753e0dff">
<path fill="#753e0d" opacity="1.00" d=" M 79.00 45.98 C 80.72 45.96 82.45 45.95 84.17 45.94 C 89.11 45.91 94.04 45.98 98.98 45.99 C 99.04 47.67 99.09 49.35 99.13 51.04 C 92.46 51.17 85.79 50.93 79.12 50.92 C 79.08 49.27 79.04 47.63 79.00 45.98 Z" />
</g>
<g id="#5a472dff">
<path fill="#5a472d" opacity="1.00" d=" M 98.98 45.99 C 100.98 45.94 102.98 45.91 104.98 45.90 C 117.17 46.02 129.37 45.96 141.57 45.98 C 143.07 46.00 144.57 46.04 146.08 46.06 C 147.70 46.08 149.33 46.08 150.96 46.08 C 150.99 47.71 151.04 49.35 151.08 50.98 C 133.77 51.20 116.45 50.87 99.13 51.04 C 99.09 49.35 99.04 47.67 98.98 45.99 Z" />
</g>
<g id="#35260eff">
<path fill="#35260e" opacity="1.00" d=" M 150.96 46.08 C 152.63 46.02 154.31 45.96 155.99 45.90 C 155.86 47.47 155.70 49.03 155.54 50.60 C 154.05 50.73 152.56 50.88 151.08 50.98 C 151.04 49.35 150.99 47.71 150.96 46.08 Z" />
</g>
</svg>
