<?xml version="1.0" encoding="UTF-8" ?>
<!DOCTYPE svg PUBLIC "-//W3C//DTD SVG 1.1//EN" "http://www.w3.org/Graphics/SVG/1.1/DTD/svg11.dtd">
<svg width="192pt" height="92pt" viewBox="0 0 192 92" version="1.1" xmlns="http://www.w3.org/2000/svg">
<g id="#feffffff">
</g>
<g id="#7a7068ff">
<path fill="#7a7068" opacity="1.00" d=" M 22.98 32.98 C 24.65 32.98 26.33 32.98 28.01 32.98 C 27.99 34.64 27.98 36.30 27.98 37.97 C 26.31 37.97 24.64 37.98 22.97 38.01 C 22.98 36.33 22.98 34.66 22.98 32.98 Z" />
</g>
<g id="#4c3f31ff">
<path fill="#4c3f31" opacity="1.00" d=" M 28.01 32.98 C 40.02 32.96 52.02 33.00 64.03 33.00 C 64.00 34.66 63.96 36.32 63.93 37.99 C 53.68 38.15 43.43 37.79 33.18 38.04 C 31.42 38.05 29.67 38.03 27.92 38.00 C 27.96 39.76 28.00 41.53 28.01 43.29 C 28.09 48.43 27.65 53.56 27.90 58.69 C 27.95 60.43 28.00 62.17 28.01 63.91 C 28.02 65.60 28.00 67.29 27.99 68.99 C 26.30 68.96 24.61 68.95 22.92 68.94 C 23.05 58.63 22.95 48.32 22.97 38.01 C 24.64 37.98 26.31 37.97 27.98 37.97 C 27.98 36.30 27.99 34.64 28.01 32.98 Z" />
</g>
<g id="#47423bff">
<path fill="#47423b" opacity="1.00" d=" M 64.03 33.00 C 74.37 32.97 84.70 32.98 95.03 33.00 C 95.03 34.66 95.02 36.32 95.01 37.98 C 84.65 37.96 74.29 38.03 63.93 37.99 C 63.96 36.32 64.00 34.66 64.03 33.00 Z" />
</g>
<g id="#4c3f33ff">
<path fill="#4c3f33" opacity="1.00" d=" M 95.03 33.00 C 109.05 32.99 123.06 33.01 137.07 32.99 C 137.09 34.65 137.11 36.30 137.14 37.95 C 123.10 37.94 109.06 38.03 95.01 37.98 C 95.02 36.32 95.03 34.66 95.03 33.00 Z" />
</g>
<g id="#464241ff">
<path fill="#464241" opacity="1.00" d=" M 137.07 32.99 C 147.37 32.97 157.67 32.99 167.96 33.02 C 167.96 34.68 167.97 36.34 167.99 38.00 C 164.25 37.99 160.52 38.05 156.80 38.04 C 150.24 37.98 143.69 37.83 137.14 37.95 C 137.11 36.30 137.09 34.65 137.07 32.99 Z" />
</g>
<g id="#1d0000ff">
<path fill="#1d0000" opacity="1.00" d=" M 27.92 38.00 C 29.67 38.03 31.42 38.05 33.18 38.04 C 33.04 39.64 32.94 41.24 32.85 42.85 C 31.23 42.98 29.62 43.14 28.01 43.29 C 28.00 41.53 27.96 39.76 27.92 38.00 Z" />
</g>
<g id="#4e1e02ff">
<path fill="#4e1e02" opacity="1.00" d=" M 33.18 38.04 C 43.43 37.79 53.68 38.15 63.93 37.99 C 74.29 38.03 84.65 37.96 95.01 37.98 C 109.06 38.03 123.10 37.94 137.14 37.95 C 143.69 37.83 150.24 37.98 156.80 38.04 C 156.85 39.69 156.90 41.34 156.95 42.98 C 151.90 43.03 146.85 42.97 141.80 43.03 C 110.58 42.96 79.36 43.02 48.14 43.01 C 43.10 43.03 38.06 42.96 33.02 43.00 C 33.01 44.79 33.01 46.58 33.00 48.38 C 32.99 50.13 33.00 51.89 33.00 53.64 C 33.00 55.42 33.01 57.19 33.02 58.97 C 31.31 58.88 29.61 58.78 27.90 58.69 C 27.65 53.56 28.09 48.43 28.01 43.29 C 29.62 43.14 31.23 42.98 32.85 42.85 C 32.94 41.24 33.04 39.64 33.18 38.04 Z" />
</g>
<g id="#300000ff">
<path fill="#300000" opacity="1.00" d=" M 156.80 38.04 C 160.52 38.05 164.25 37.99 167.99 38.00 C 168.02 45.06 167.99 52.13 167.99 59.19 C 166.01 59.16 164.03 59.13 162.05 59.10 C 161.95 53.72 162.14 48.34 161.95 42.96 C 160.28 42.98 158.62 42.99 156.95 42.98 C 156.90 41.34 156.85 39.69 156.80 38.04 Z" />
</g>
<g id="#b78653ff">
<path fill="#b78653" opacity="1.00" d=" M 33.02 43.00 C 38.06 42.96 43.10 43.03 48.14 43.01 C 48.12 44.65 48.11 46.29 48.10 47.92 C 46.34 47.88 44.59 47.85 42.83 47.89 C 39.55 48.02 36.28 48.22 33.00 48.38 C 33.01 46.58 33.01 44.79 33.02 43.00 Z" />
</g>
<g id="#ca8236ff">
<path fill="#ca8236" opacity="1.00" d=" M 48.14 43.01 C 79.36 43.02 110.58 42.96 141.80 43.03 C 141.84 44.71 141.87 46.40 141.91 48.09 C 121.27 47.88 100.63 48.22 79.99 47.90 C 69.36 47.77 58.73 48.33 48.10 47.92 C 48.11 46.29 48.12 44.65 48.14 43.01 Z" />
</g>
<g id="#be7e42ff">
<path fill="#be7e42" opacity="1.00" d=" M 141.80 43.03 C 146.85 42.97 151.90 43.03 156.95 42.98 C 156.97 48.30 156.96 53.62 156.95 58.95 C 155.18 58.97 153.40 58.99 151.63 59.00 C 152.00 55.38 152.33 51.75 152.25 48.11 C 150.51 48.10 148.77 48.09 147.03 48.07 C 145.32 48.07 143.62 48.08 141.91 48.09 C 141.87 46.40 141.84 44.71 141.80 43.03 Z" />
</g>
<g id="#733f0dff">
<path fill="#733f0d" opacity="1.00" d=" M 156.95 42.98 C 158.62 42.99 160.28 42.98 161.95 42.96 C 162.14 48.34 161.95 53.72 162.05 59.10 C 160.35 59.05 158.65 59.00 156.95 58.95 C 156.96 53.62 156.97 48.30 156.95 42.98 Z" />
</g>
<g id="#d37f2cff">
<path fill="#d37f2c" opacity="1.00" d=" M 33.00 48.38 C 36.28 48.22 39.55 48.02 42.83 47.89 C 42.93 49.85 43.01 51.82 43.08 53.79 C 51.68 54.59 60.32 53.61 68.93 53.94 C 82.64 54.45 96.35 54.07 110.06 53.87 C 122.26 53.69 134.48 54.71 146.66 53.67 C 146.77 51.80 146.89 49.94 147.03 48.07 C 148.77 48.09 150.51 48.10 152.25 48.11 C 152.33 51.75 152.00 55.38 151.63 59.00 C 150.13 59.00 148.63 58.98 147.13 58.96 C 122.77 59.03 98.41 58.99 74.05 59.00 C 67.39 58.99 60.74 58.98 54.08 59.01 C 50.31 59.01 46.55 59.00 42.78 58.97 C 41.29 58.96 39.80 58.97 38.31 58.97 C 38.17 57.28 38.05 55.58 37.96 53.89 C 36.30 53.83 34.65 53.75 33.00 53.64 C 33.00 51.89 32.99 50.13 33.00 48.38 Z" />
</g>
<g id="#e17a1eff">
<path fill="#e17a1e" opacity="1.00" d=" M 42.83 47.89 C 44.59 47.85 46.34 47.88 48.10 47.92 C 58.73 48.33 69.36 47.77 79.99 47.90 C 100.63 48.22 121.27 47.88 141.91 48.09 C 143.62 48.08 145.32 48.07 147.03 48.07 C 146.89 49.94 146.77 51.80 146.66 53.67 C 134.48 54.71 122.26 53.69 110.06 53.87 C 96.35 54.07 82.64 54.45 68.93 53.94 C 60.32 53.61 51.68 54.59 43.08 53.79 C 43.01 51.82 42.93 49.85 42.83 47.89 Z" />
</g>
<g id="#b57e3dff">
<path fill="#b57e3d" opacity="1.00" d=" M 33.00 53.64 C 34.65 53.75 36.30 53.83 37.96 53.89 C 38.05 55.58 38.17 57.28 38.31 58.97 C 36.55 58.97 34.78 58.97 33.02 58.97 C 33.01 57.19 33.00 55.42 33.00 53.64 Z" />
</g>
<g id="#2e1901ff">
<path fill="#2e1901" opacity="1.00" d=" M 27.90 58.69 C 29.61 58.78 31.31 58.88 33.02 58.97 C 33.02 60.63 33.03 62.29 33.04 63.95 C 31.37 63.94 29.69 63.92 28.01 63.91 C 28.00 62.17 27.95 60.43 27.90 58.69 Z" />
</g>
<g id="#704722ff">
<path fill="#704722" opacity="1.00" d=" M 33.02 58.97 C 34.78 58.97 36.55 58.97 38.31 58.97 C 39.80 58.97 41.29 58.96 42.78 58.97 C 42.79 60.64 42.79 62.32 42.80 63.99 C 39.55 63.95 36.29 63.96 33.04 63.95 C 33.03 62.29 33.02 60.63 33.02 58.97 Z" />
</g>
<g id="#703f09ff">
<path fill="#703f09" opacity="1.00" d=" M 42.78 58.97 C 46.55 59.00 50.31 59.01 54.08 59.01 C 54.08 60.67 54.09 62.34 54.10 64.01 C 50.33 64.05 46.56 64.06 42.80 63.99 C 42.79 62.32 42.79 60.64 42.78 58.97 Z" />
</g>
<g id="#6a411bff">
<path fill="#6a411b" opacity="1.00" d=" M 54.08 59.01 C 60.74 58.98 67.39 58.99 74.05 59.00 C 74.07 60.66 74.10 62.32 74.12 63.98 C 67.45 64.01 60.77 63.98 54.10 64.01 C 54.09 62.34 54.08 60.67 54.08 59.01 Z" />
</g>
<g id="#704109ff">
<path fill="#704109" opacity="1.00" d=" M 74.05 59.00 C 98.41 58.99 122.77 59.03 147.13 58.96 C 147.13 60.65 147.13 62.35 147.13 64.04 C 122.79 64.08 98.46 63.97 74.12 63.98 C 74.10 62.32 74.07 60.66 74.05 59.00 Z" />
</g>
<g id="#684720ff">
<path fill="#684720" opacity="1.00" d=" M 147.13 58.96 C 148.63 58.98 150.13 59.00 151.63 59.00 C 153.40 58.99 155.18 58.97 156.95 58.95 C 156.93 60.61 156.90 62.28 156.87 63.96 C 153.62 63.94 150.37 63.96 147.13 64.04 C 147.13 62.35 147.13 60.65 147.13 58.96 Z" />
</g>
<g id="#3a240eff">
<path fill="#3a240e" opacity="1.00" d=" M 156.95 58.95 C 158.65 59.00 160.35 59.05 162.05 59.10 C 162.04 60.72 162.07 62.34 162.10 63.97 C 160.35 63.96 158.61 63.95 156.87 63.96 C 156.90 62.28 156.93 60.61 156.95 58.95 Z" />
</g>
<g id="#0b0000ff">
<path fill="#0b0000" opacity="1.00" d=" M 162.05 59.10 C 164.03 59.13 166.01 59.16 167.99 59.19 C 167.98 62.46 168.00 65.73 168.00 69.00 C 161.01 69.01 154.03 68.99 147.04 69.02 C 147.07 67.36 147.10 65.70 147.13 64.04 C 150.37 63.96 153.62 63.94 156.87 63.96 C 158.61 63.95 160.35 63.96 162.10 63.97 C 162.07 62.34 162.04 60.72 162.05 59.10 Z" />
</g>
<g id="#170000ff">
<path fill="#170000" opacity="1.00" d=" M 28.01 63.91 C 29.69 63.92 31.37 63.94 33.04 63.95 C 36.29 63.96 39.55 63.95 42.80 63.99 C 46.56 64.06 50.33 64.05 54.10 64.01 C 60.77 63.98 67.45 64.01 74.12 63.98 C 98.46 63.97 122.79 64.08 147.13 64.04 C 147.10 65.70 147.07 67.36 147.04 69.02 C 107.36 69.00 67.68 69.03 27.99 68.99 C 28.00 67.29 28.02 65.60 28.01 63.91 Z" />
</g>
</svg>
