{
    "asset" : {
        "generator" : "Khronos glTF Blender I/O v1.3.16",
        "version" : "2.0"
    },
    "scene" : 0,
    "scenes" : [
        {
            "name" : "Scene",
            "nodes" : [
                0,
                1,
                2
            ]
        }
    ],
    "nodes" : [
        {
            "mesh" : 0,
            "name" : "Cube"
        },
        {
            "name" : "Camera",
            "rotation" : [
                0.37112677097320557,
                0.5701467990875244,
                -0.3319609463214874,
                0.6534519791603088
            ],
            "translation" : [
                4.408977031707764,
                3.142144203186035,
                0.6974688768386841
            ]
        },
        {
            "name" : "Spot",
            "rotation" : [
                0.32890477776527405,
                0.028688864782452583,
                0.20284736156463623,
                0.921873927116394
            ],
            "translation" : [
                -2.136641502380371,
                4.640078067779541,
                4.612586975097656
            ]
        }
    ],
    "materials" : [
        {
            "doubleSided" : true,
            "emissiveFactor" : [
                0.20626004040241241,
                0.2864600718021393,
                0.3032015264034271
            ],
            "name" : "Material.001",
            "pbrMetallicRoughness" : {
                "baseColorFactor" : [
                    0.800000011920929,
                    0.800000011920929,
                    0.800000011920929,
                    1
                ],
                "metallicFactor" : 0,
                "roughnessFactor" : 0.5
            }
        }
    ],
    "meshes" : [
        {
            "name" : "Cube",
            "primitives" : [
                {
                    "attributes" : {
                        "POSITION" : 0,
                        "NORMAL" : 1,
                        "TEXCOORD_0" : 2,
                        "COLOR_0" : 3
                    },
                    "indices" : 4,
                    "material" : 0
                }
            ]
        }
    ],
    "accessors" : [
        {
            "bufferView" : 0,
            "componentType" : 5126,
            "count" : 586,
            "max" : [
                1,
                1.627379059791565,
                1
            ],
            "min" : [
                -1,
                0.004914119839668274,
                -1
            ],
            "type" : "VEC3"
        },
        {
            "bufferView" : 1,
            "componentType" : 5126,
            "count" : 586,
            "type" : "VEC3"
        },
        {
            "bufferView" : 2,
            "componentType" : 5126,
            "count" : 586,
            "type" : "VEC2"
        },
        {
            "bufferView" : 3,
            "componentType" : 5126,
            "count" : 586,
            "type" : "VEC4"
        },
        {
            "bufferView" : 4,
            "componentType" : 5123,
            "count" : 2304,
            "type" : "SCALAR"
        }
    ],
    "bufferViews" : [
        {
            "buffer" : 0,
            "byteLength" : 7032,
            "byteOffset" : 0
        },
        {
            "buffer" : 0,
            "byteLength" : 7032,
            "byteOffset" : 7032
        },
        {
            "buffer" : 0,
            "byteLength" : 4688,
            "byteOffset" : 14064
        },
        {
            "buffer" : 0,
            "byteLength" : 9376,
            "byteOffset" : 18752
        },
        {
            "buffer" : 0,
            "byteLength" : 4608,
            "byteOffset" : 28128
        }
    ],
    "buffers" : [
        {
            "byteLength" : 32736,
            "uri" : "data:application/octet-stream;base64,"
        }
    ]
}
