<?xml version="1.0" encoding="UTF-8" ?>
<!DOCTYPE svg PUBLIC "-//W3C//DTD SVG 1.1//EN" "http://www.w3.org/Graphics/SVG/1.1/DTD/svg11.dtd">
<svg width="143pt" height="143pt" viewBox="0 0 143 143" version="1.1" xmlns="http://www.w3.org/2000/svg">
<g id="#fb5522ff">
<path fill="#fb5522" opacity="1.00" d=" M 68.82 0.00 L 73.92 0.00 C 91.58 0.65 109.00 7.96 121.53 20.47 C 134.58 33.03 142.26 50.79 143.00 68.84 L 143.00 73.98 C 142.33 91.61 135.04 108.99 122.56 121.51 C 110.00 134.57 92.23 142.26 74.17 143.00 L 68.76 143.00 C 51.21 142.25 33.92 134.97 21.46 122.53 C 8.42 109.98 0.74 92.22 0.00 74.18 L 0.00 69.03 C 0.67 50.91 8.38 33.06 21.47 20.47 C 33.94 8.01 51.25 0.73 68.82 0.00 Z" />
</g>
</svg>
