<?xml version="1.0" encoding="UTF-8" ?>
<!DOCTYPE svg PUBLIC "-//W3C//DTD SVG 1.1//EN" "http://www.w3.org/Graphics/SVG/1.1/DTD/svg11.dtd">
<svg width="444pt" height="336pt" viewBox="0 0 444 336" version="1.1" xmlns="http://www.w3.org/2000/svg">
<g id="#d1d1d1ff">
<path fill="#d1d1d1" opacity="1.00" d=" M 104.22 0.00 L 159.19 0.00 C 124.50 111.98 89.97 224.02 55.28 336.00 L 0.28 336.00 C 34.99 224.02 69.47 111.97 104.22 0.00 Z" />
<path fill="#d1d1d1" opacity="1.00" d=" M 198.22 0.00 L 253.19 0.00 C 218.50 111.98 183.97 224.02 149.28 336.00 L 94.28 336.00 C 128.99 224.02 163.47 111.97 198.22 0.00 Z" />
<path fill="#d1d1d1" opacity="1.00" d=" M 295.22 0.00 L 350.19 0.00 C 315.50 111.98 280.96 224.01 246.28 336.00 L 191.28 336.00 C 225.99 224.02 260.47 111.97 295.22 0.00 Z" />
<path fill="#d1d1d1" opacity="1.00" d=" M 389.22 0.00 L 444.00 0.00 L 444.00 0.64 C 409.36 112.41 374.90 224.23 340.28 336.00 L 285.28 336.00 C 319.99 224.02 354.47 111.97 389.22 0.00 Z" />
</g>
</svg>
